PathFileType	4	(x/y/z)	S08_SL_Cal_T01
DataRate	CameraRate	NumFrames	NumMarkers	Units	OrigDataRate	OrigDataStartFrame	OrigNumFrames
240	240	9	51	mm	240	1201	2400
Frame#	Time	Sternum			R.Acromium			L.Acromium			Top.Head			R.ASIS			L.ASIS			R.PSIS			L.PSIS			R.Great.Tro			L.Great.Tro			R.Iliac.Crest			L.Iliac.Crest			V.Sacral			R.Thigh.Upper.Post			R.Thigh.Lower.Ant			R.Thigh.Lower.Post			R.Thigh.Upper.Ant			R.Knee.Lat			R.Knee.Med			R.Shank.Upper.Post			R.Shank.Lower.Ant			R.Shank.Lower.Post			R.Shank.Upper.Ant			R.Ankle.Lat			R.Ankle.Med			R.Heel.Upper			R.Heel.Med			R.Heel.Lat			R.Toe.Lat			R.Toe.Med			R.Toe.Tip			L.Thigh.Upper.Post			L.Thigh.Lower.Ant			L.Thigh.Lower.Post			L.Thigh.Upper.Ant			L.Knee.Lat			L.Knee.Med			L.Shank.Upper.Post			L.Shank.Lower.Ant			L.Shank.Lower.Post			L.Shank.Upper.Ant			L.Ankle.Lat			L.Ankle.Med			L.Heel.Upper			L.Heel.Med			L.Heel.Lat			L.Toe.Lat			L.Toe.Med			L.Toe.Tip			Cervical.Spine			Back			
		X1	Y1	Z1	X2	Y2	Z2	X3	Y3	Z3	X4	Y4	Z4	X5	Y5	Z5	X6	Y6	Z6	X7	Y7	Z7	X8	Y8	Z8	X9	Y9	Z9	X10	Y10	Z10	X11	Y11	Z11	X12	Y12	Z12	X13	Y13	Z13	X14	Y14	Z14	X15	Y15	Z15	X16	Y16	Z16	X17	Y17	Z17	X18	Y18	Z18	X19	Y19	Z19	X20	Y20	Z20	X21	Y21	Z21	X22	Y22	Z22	X23	Y23	Z23	X24	Y24	Z24	X25	Y25	Z25	X26	Y26	Z26	X27	Y27	Z27	X28	Y28	Z28	X29	Y29	Z29	X30	Y30	Z30	X31	Y31	Z31	X32	Y32	Z32	X33	Y33	Z33	X34	Y34	Z34	X35	Y35	Z35	X36	Y36	Z36	X37	Y37	Z37	X38	Y38	Z38	X39	Y39	Z39	X40	Y40	Z40	X41	Y41	Z41	X42	Y42	Z42	X43	Y43	Z43	X44	Y44	Z44	X45	Y45	Z45	X46	Y46	Z46	X47	Y47	Z47	X48	Y48	Z48	X49	Y49	Z49	X50	Y50	Z50	X51	Y51	Z51	

1201	5	561.81	1246.2	330.97	417.34	1481.2	499.08	413.51	1495.6	164.03	444.96	1805.6	345.37	534.49	1021.7	434.62	542.19	1026.1	201.19	338.19	1051.3	354.2	344.4	1059.4	261.5	452.59	924.45	501.55	438.01	928.66	135.62	437.91	1091	479.18	453.76	1110	174.47	321.84	1017.5	304.64	399.49	737.39	514.77	459.1	622.9	499.74	391.43	646.62	509.16	476.35	716.78	508.25	409.9	530.06	499.29	389.69	518.37	373	327.35	355.55	524.79	390.12	291.7	518	327.27	278.08	525.32	392.51	368.72	518.12	335.39	102.94	509.22	367.99	112.3	434.02	291.29	66.174	463.98	305.55	39.48	438.22	294.9	42.555	499.41	NaN	NaN	NaN	491.6	44.23	440.58	554.13	59.203	490.98	394.86	737.71	121.29	465.54	633.27	125.33	398	646.27	123.85	465.38	722.33	114.84	396.58	534.24	129.17	406.35	513.78	253.75	322.3	358.18	110.71	389.33	268.41	111.34	319.3	283.98	117.47	386.2	345.04	106.72	345.77	105.52	103.05	375.2	102.97	185.71	295.1	76.231	150.49	311.4	42.137	179.53	301.63	48.809	116.61	475.22	38.417	67.337	503.06	44.075	180.51	562.69	58.852	126.82	349.82	1524.3	322.32	328.45	1242.8	334.62
1202	5.0042	561.8	1246.2	330.98	417.33	1481.2	499.1	413.52	1495.6	164.05	444.97	1805.6	345.37	534.49	1021.7	434.62	542.19	1026.1	201.19	338.18	1051.3	354.19	344.4	1059.4	261.49	452.58	924.45	501.55	438.01	928.66	135.61	437.9	1091	479.17	453.76	1110	174.47	321.84	1017.5	304.63	399.48	737.4	514.77	459.09	622.9	499.74	391.42	646.62	509.16	476.34	716.78	508.25	409.89	530.06	499.28	389.69	518.37	372.99	327.34	355.54	524.79	390.12	291.7	518	327.27	278.08	525.32	392.51	368.72	518.12	335.39	102.94	509.22	367.99	112.3	434.02	291.29	66.174	463.98	305.55	39.481	438.22	294.9	42.553	499.41	NaN	NaN	NaN	491.6	44.23	440.58	554.12	59.215	490.97	394.87	737.71	121.28	465.55	633.27	125.33	398	646.27	123.84	465.38	722.33	114.84	396.59	534.23	129.17	406.35	513.78	253.75	322.3	358.18	110.7	389.33	268.41	111.33	319.31	283.98	117.46	386.2	345.04	106.72	345.77	105.52	103.05	375.2	102.97	185.7	295.1	76.23	150.48	311.4	42.137	179.53	301.63	48.807	116.61	475.21	38.419	67.338	503.06	44.075	180.51	562.69	58.858	126.82	349.82	1524.3	322.33	328.45	1242.8	334.62
1203	5.0083	561.8	1246.2	330.98	417.33	1481.2	499.11	413.52	1495.6	164.06	444.97	1805.6	345.38	534.48	1021.7	434.61	542.19	1026.1	201.19	338.18	1051.3	354.18	344.4	1059.4	261.48	452.58	924.45	501.54	438.02	928.66	135.61	437.89	1091	479.15	453.76	1110	174.46	321.84	1017.5	304.62	399.47	737.4	514.76	459.08	622.9	499.74	391.41	646.62	509.15	476.33	716.79	508.24	409.88	530.06	499.28	389.68	518.37	372.99	327.34	355.53	524.78	390.12	291.7	517.99	327.27	278.07	525.32	392.5	368.72	518.12	335.39	102.94	509.22	367.98	112.3	434.02	291.29	66.173	463.98	305.55	39.482	438.22	294.9	42.551	499.41	NaN	NaN	NaN	491.59	44.23	440.57	554.11	59.227	490.97	394.88	737.71	121.27	465.55	633.27	125.32	398.01	646.27	123.83	465.39	722.33	114.83	396.59	534.23	129.16	406.35	513.78	253.74	322.3	358.18	110.69	389.33	268.41	111.33	319.31	283.98	117.46	386.21	345.03	106.72	345.76	105.52	103.04	375.19	102.97	185.7	295.1	76.228	150.48	311.4	42.138	179.53	301.63	48.805	116.61	475.21	38.421	67.34	503.06	44.075	180.51	562.69	58.865	126.82	349.83	1524.3	322.34	328.45	1242.8	334.61
1204	5.0125	561.8	1246.2	330.99	417.33	1481.2	499.12	413.52	1495.6	164.08	444.98	1805.6	345.38	534.48	1021.7	434.61	542.2	1026.1	201.18	338.18	1051.3	354.17	344.4	1059.4	261.47	452.57	924.45	501.53	438.02	928.66	135.6	437.88	1091	479.14	453.77	1110	174.45	321.83	1017.5	304.61	399.46	737.4	514.76	459.07	622.9	499.73	391.4	646.62	509.14	476.32	716.79	508.24	409.88	530.06	499.28	389.67	518.37	372.99	327.33	355.53	524.78	390.12	291.7	517.99	327.27	278.07	525.31	392.5	368.72	518.12	335.39	102.94	509.22	367.98	112.3	434.02	291.29	66.172	463.98	305.55	39.484	438.22	294.9	42.549	499.41	NaN	NaN	NaN	491.59	44.23	440.57	554.1	59.239	490.96	394.88	737.7	121.27	465.55	633.27	125.32	398.01	646.26	123.83	465.39	722.33	114.83	396.59	534.23	129.16	406.35	513.78	253.74	322.3	358.18	110.68	389.33	268.41	111.33	319.31	283.97	117.45	386.21	345.03	106.71	345.76	105.52	103.04	375.19	102.97	185.7	295.1	76.226	150.48	311.41	42.138	179.53	301.63	48.803	116.61	475.21	38.423	67.342	503.06	44.076	180.51	562.68	58.872	126.82	349.83	1524.3	322.35	328.45	1242.7	334.61
1205	5.0167	561.8	1246.2	330.99	417.33	1481.2	499.14	413.52	1495.7	164.09	444.99	1805.5	345.39	534.47	1021.7	434.61	542.2	1026.1	201.18	338.17	1051.3	354.16	344.4	1059.4	261.46	452.56	924.45	501.52	438.02	928.66	135.59	437.88	1091	479.13	453.77	1110	174.45	321.84	1017.5	304.6	399.46	737.4	514.75	459.06	622.9	499.73	391.39	646.61	509.14	476.32	716.78	508.24	409.87	530.05	499.27	389.67	518.36	372.98	327.33	355.52	524.78	390.12	291.69	517.99	327.27	278.06	525.31	392.5	368.72	518.11	335.39	102.94	509.22	367.98	112.3	434.02	291.29	66.171	463.98	305.55	39.485	438.22	294.89	42.547	499.41	NaN	NaN	NaN	491.59	44.23	440.57	554.09	59.252	490.96	394.89	737.7	121.26	465.56	633.27	125.32	398.02	646.26	123.82	465.4	722.33	114.82	396.6	534.23	129.15	406.35	513.77	253.73	322.31	358.17	110.67	389.34	268.41	111.32	319.31	283.97	117.45	386.21	345.03	106.71	345.76	105.52	103.04	375.18	102.97	185.69	295.1	76.224	150.48	311.41	42.139	179.53	301.63	48.801	116.61	475.21	38.426	67.344	503.05	44.076	180.51	562.68	58.881	126.83	349.84	1524.3	322.37	328.45	1242.7	334.61
1206	5.0208	561.79	1246.2	331	417.33	1481.2	499.15	413.53	1495.7	164.11	444.99	1805.5	345.4	534.47	1021.7	434.61	542.2	1026.1	201.18	338.17	1051.3	354.15	344.39	1059.4	261.45	452.56	924.45	501.51	438.03	928.66	135.58	437.87	1091	479.12	453.77	1110	174.44	321.84	1017.5	304.59	399.45	737.4	514.75	459.05	622.9	499.73	391.39	646.61	509.13	476.31	716.78	508.24	409.87	530.05	499.27	389.66	518.36	372.98	327.33	355.52	524.78	390.12	291.69	517.98	327.27	278.06	525.31	392.5	368.72	518.11	335.39	102.94	509.22	367.97	112.3	434.02	291.29	66.17	463.98	305.55	39.486	438.22	294.89	42.545	499.41	NaN	NaN	NaN	491.59	44.23	440.57	554.08	59.264	490.95	394.89	737.7	121.26	465.56	633.27	125.31	398.02	646.26	123.81	465.4	722.33	114.82	396.6	534.23	129.15	406.35	513.77	253.73	322.31	358.17	110.67	389.34	268.41	111.32	319.32	283.97	117.44	386.22	345.03	106.71	345.76	105.52	103.04	375.18	102.97	185.69	295.09	76.222	150.47	311.41	42.14	179.52	301.63	48.798	116.61	475.21	38.428	67.346	503.05	44.076	180.51	562.67	58.89	126.83	349.84	1524.3	322.38	328.45	1242.7	334.61
1207	5.025	561.79	1246.1	331	417.33	1481.1	499.16	413.53	1495.7	164.12	445	1805.5	345.41	534.47	1021.6	434.61	542.2	1026.1	201.18	338.16	1051.3	354.14	344.39	1059.4	261.44	452.55	924.45	501.51	438.03	928.66	135.58	437.86	1091	479.1	453.77	1110	174.44	321.84	1017.4	304.57	399.45	737.4	514.74	459.05	622.89	499.73	391.38	646.61	509.13	476.3	716.78	508.23	409.87	530.05	499.27	389.66	518.36	372.98	327.32	355.51	524.77	390.12	291.69	517.98	327.27	278.05	525.3	392.5	368.71	518.11	335.39	102.93	509.22	367.97	112.3	434.02	291.28	66.17	463.99	305.54	39.487	438.22	294.89	42.542	499.41	NaN	NaN	NaN	491.59	44.231	440.57	554.08	59.277	490.95	394.89	737.7	121.25	465.57	633.27	125.31	398.03	646.26	123.81	465.41	722.33	114.81	396.61	534.22	129.14	406.35	513.77	253.72	322.31	358.16	110.66	389.34	268.4	111.32	319.32	283.97	117.44	386.22	345.03	106.7	345.76	105.52	103.03	375.18	102.97	185.69	295.09	76.22	150.47	311.41	42.141	179.52	301.62	48.796	116.61	475.21	38.431	67.349	503.05	44.076	180.51	562.67	58.9	126.83	349.84	1524.3	322.4	328.44	1242.7	334.6
1208	5.0292	561.79	1246.1	331	417.33	1481.1	499.17	413.53	1495.7	164.13	445	1805.5	345.42	534.46	1021.6	434.6	542.2	1026.1	201.18	338.16	1051.3	354.13	344.39	1059.4	261.43	452.55	924.45	501.5	438.03	928.65	135.57	437.86	1091	479.09	453.77	1110	174.43	321.85	1017.4	304.56	399.45	737.4	514.74	459.04	622.89	499.72	391.38	646.61	509.12	476.3	716.78	508.23	409.86	530.05	499.27	389.65	518.35	372.98	327.32	355.51	524.77	390.12	291.69	517.98	327.27	278.05	525.3	392.5	368.71	518.1	335.39	102.93	509.22	367.97	112.29	434.02	291.28	66.169	463.99	305.54	39.488	438.22	294.89	42.54	499.42	NaN	NaN	NaN	491.58	44.231	440.57	554.07	59.289	490.94	394.9	737.7	121.25	465.57	633.27	125.31	398.03	646.26	123.8	465.41	722.32	114.81	396.61	534.22	129.14	406.35	513.77	253.72	322.32	358.16	110.65	389.34	268.4	111.32	319.32	283.96	117.43	386.23	345.02	106.7	345.76	105.52	103.03	375.17	102.98	185.68	295.09	76.217	150.47	311.41	42.142	179.52	301.62	48.793	116.6	475.2	38.434	67.351	503.05	44.076	180.51	562.66	58.911	126.84	349.85	1524.3	322.41	328.44	1242.7	334.6
1209	5.0333	561.79	1246.1	331.01	417.33	1481.1	499.18	413.52	1495.7	164.15	445.01	1805.5	345.43	534.46	1021.6	434.6	542.2	1026.1	201.18	338.15	1051.3	354.12	344.39	1059.4	261.42	452.54	924.45	501.49	438.04	928.65	135.56	437.85	1091.1	479.08	453.77	1110	174.43	321.85	1017.4	304.55	399.44	737.39	514.73	459.04	622.89	499.72	391.37	646.6	509.12	476.3	716.78	508.22	409.86	530.04	499.26	389.65	518.35	372.97	327.32	355.5	524.77	390.12	291.68	517.97	327.28	278.04	525.3	392.5	368.71	518.1	335.39	102.93	509.22	367.96	112.29	434.02	291.28	66.168	463.99	305.54	39.488	438.22	294.89	42.538	499.42	NaN	NaN	NaN	491.58	44.231	440.57	554.06	59.301	490.93	394.9	737.7	121.24	465.58	633.26	125.3	398.04	646.25	123.8	465.42	722.32	114.8	396.61	534.22	129.13	406.35	513.77	253.71	322.32	358.16	110.64	389.35	268.4	111.31	319.33	283.96	117.42	386.23	345.02	106.7	345.75	105.52	103.03	375.17	102.98	185.68	295.08	76.214	150.47	311.42	42.143	179.52	301.62	48.79	116.6	475.2	38.437	67.353	503.05	44.077	180.51	562.66	58.922	126.84	349.85	1524.3	322.42	328.44	1242.7	334.6
